inDegrees=yes
name=ik_MT_012005D6_009-001_orientations
DataType=double
version=3
OpenSimVersion=4.2-2021-01-13-642235af4
endheader
time	pelvis_tilt	pelvis_list	pelvis_rotation	pelvis_tx	pelvis_ty	pelvis_tz	hip_flexion_r	hip_adduction_r	hip_rotation_r	knee_angle_r	knee_angle_r_beta	ankle_angle_r	subtalar_angle_r	mtp_angle_r	hip_flexion_l	hip_adduction_l	hip_rotation_l	knee_angle_l	knee_angle_l_beta	ankle_angle_l	subtalar_angle_l	mtp_angle_l	lumbar_extension	lumbar_bending	lumbar_rotation	arm_flex_r	arm_add_r	arm_rot_r	elbow_flex_r	pro_sup_r	wrist_flex_r	wrist_dev_r	arm_flex_l	arm_add_l	arm_rot_l	elbow_flex_l	pro_sup_l	wrist_flex_l	wrist_dev_l
11.12999999999981	352.2725584640963	93.53486157996254	-12.09133643480278	0	0.9399999999999999	0	13.88656574061118	-17.42098807796286	-0.7193717893358534	57.91414907059411	1.010792584772681	-10.66948754693433	0	0	17.98204180491369	2.954090465651388	-4.126565767236942	14.1542106287197	0.2470375784919354	1.558339310177972	0	0	-21.33519149023923	-3.990924183913107	3.410545939554321	0	-12.93381217237517	0	73.56967206488429	44.99697078848012	0	0	0	-12.93381217237517	0	73.56967206488429	44.99697078848012	0	0
11.13999999999981	352.3122217373116	93.36086323817598	-11.95975356596135	0	0.9399999999999999	0	14.68360700578726	-17.32776388384894	-0.8253302157688115	57.75697618645709	1.008049400449635	-10.27708915138002	0	0	17.42792430633085	3.005342006169843	-4.142442807876682	14.19343358355177	0.2477221481961161	1.891983329792348	0	0	-21.28606949210665	-3.711735287754877	3.15957155194164	0	-12.93450981643646	0	73.57061418186949	44.99697628207493	0	0	0	-12.93450981643646	0	73.57061418186949	44.99697628207493	0	0
11.14999999999981	352.3855250007227	93.17317978239336	-11.82537890969443	0	0.9399999999999999	0	15.45503551395827	-17.09633503770869	-0.915407123615944	57.4568392760694	1.002811023156606	-9.808013221455468	0	0	16.9182921397075	3.064030471596088	-4.181555731551732	14.25166484105125	0.2487384753670586	2.183613922291171	0	0	-21.18570911242048	-3.401268894840459	2.854560953700317	0	-12.93506755156537	0	73.57136661053688	44.99698065912079	0	0	0	-12.93506755156537	0	73.57136661053688	44.99698065912079	0	0
11.15999999999981	352.4928092434592	92.91668520869119	-11.67749380466438	0	0.9399999999999999	0	16.1936922263065	-16.73899408173618	-1.106506362564468	57.1197448019123	0.9969276146922859	-9.197614154293452	0	0	16.39230072292656	3.024003373657617	-4.199517389555325	14.31989111793636	0.249929248535081	2.489206471815859	0	0	-21.08536165468844	-3.032212364993357	2.542128426041968	0	-12.93591894583308	0	73.57251693908185	44.99698736399623	0	0	0	-12.93591894583308	0	73.57251693908185	44.99698736399623	0	0
11.16999999999981	352.6083901741653	92.65899829560151	-11.54809952260572	0	0.9399999999999999	0	16.88405636209047	-16.27596061088806	-1.318152792434904	56.63181354817081	0.9884116077911129	-8.543291307139345	0	0	15.86694503390166	2.975281468773809	-4.250711841061296	14.36634076417845	0.2507399477983923	2.790120914773964	0	0	-20.94170812142596	-2.660363392690098	2.24023418390488	0	-12.93674500960766	0	73.57363243816691	44.99699385506663	0	0	0	-12.93674500960766	0	73.57363243816691	44.99699385506663	0	0
11.17999999999981	352.7401768108618	92.38071646422688	-11.43190637710763	0	0.9399999999999999	0	17.55119266095701	-15.72974745753712	-1.571007264103746	56.04368615548957	0.9781468483676556	-7.882236447516868	0	0	15.35676341782633	2.895956406038663	-4.30829602163007	14.40706938903411	0.2514507964019331	3.069855839920768	0	0	-20.78976054409159	-2.265609418787108	1.94734346252386	0	-12.93762194331237	0	73.57481632092049	44.99700073593085	0	0	0	-12.93762194331237	0	73.57481632092049	44.99700073593085	0	0
11.18999999999981	352.8850912732173	92.12483753106517	-11.34598289897472	0	0.9399999999999999	0	18.21821278463457	-15.144251781121	-1.805272819095728	55.3552144969002	0.966130751118605	-7.202149487746174	0	0	14.84912406123437	2.804618018007435	-4.404575042650109	14.43306422840048	0.2519044919374033	3.342132281286177	0	0	-20.61185914935817	-1.891175433450387	1.668820046365534	0	-12.9443971149487	0	73.58254997802172	44.99703399180598	0	0	0	-12.9443971149487	0	73.58254997802172	44.99703399180598	0	0
11.19999999999981	353.0631960333585	91.82816992632431	-11.27813086031374	0	0.9399999999999999	0	18.81417454418254	-14.47318176596154	-2.088500887096443	54.44627621995537	0.9502667854885136	-6.556929348685848	0	0	14.28513219643127	2.680703276988373	-4.457422635298694	14.35947059646567	0.2506200407516399	3.52896987986865	0	0	-20.45544517298935	-1.454045506431786	1.376217997703238	0	-12.9510206412685	0	73.59016123465661	44.99706715667139	0	0	0	-12.9510206412685	0	73.59016123465661	44.99706715667139	0	0
11.20999999999981	353.2423475864796	91.6328554726926	-11.23394381587554	0	0.9399999999999999	0	19.452913145878	-13.85713575555685	-2.307489443234804	53.46422418626641	0.9331267440747351	-5.840414334519911	0	0	13.72608733393548	2.640274311079495	-4.564774391257191	14.25162050898272	0.2487377016264986	3.767233963217352	0	0	-20.26811427834639	-1.146094520882745	1.106568160051945	0	-12.95737997240309	0	73.59750591237206	44.99709946505583	0	0	0	-12.95737997240309	0	73.59750591237206	44.99709946505583	0	0
11.21999999999981	353.3994275875619	91.47538950065153	-11.19123530384585	0	0.9399999999999999	0	20.11446518139543	-13.25610627769588	-2.455915956923913	52.4619378284499	0.9156335470830149	-5.008166167924429	0	0	13.1358430081868	2.623793874461335	-4.69329285733202	14.07051161031987	0.2455767550401711	3.923563456053626	0	0	-20.07947037319554	-0.8782377826242543	0.8396042064480995	0	-12.96305564736477	0	73.60403458352921	44.99712786947595	0	0	0	-12.96305564736477	0	73.60403458352921	44.99712786947595	0	0
11.22999999999981	353.5739697263811	91.33518980047209	-11.15992998074274	0	0.9399999999999999	0	20.73396808025746	-12.60301658926143	-2.581773602661927	51.34275920863232	0.8961001952492722	-4.184656923001865	0	0	12.50623267745235	2.634312423319195	-4.757910611409064	13.85137418544132	0.2417520854616987	4.088923805874789	0	0	-19.89438940539983	-0.617766708236803	0.5751619711767363	0	-12.96857881542445	0	73.61042500343108	44.99715595209937	0	0	0	-12.96857881542445	0	73.61042500343108	44.99715595209937	0	0
